<?xml version="1.0" encoding="UTF-8" standalone="no"?><!DOCTYPE svg PUBLIC "-//W3C//DTD SVG 1.1//EN" "http://www.w3.org/Graphics/SVG/1.1/DTD/svg11.dtd"><svg width="100%" height="100%" viewBox="0 0 93 31" version="1.1" xmlns="http://www.w3.org/2000/svg" xmlns:xlink="http://www.w3.org/1999/xlink" xml:space="preserve" xmlns:serif="http://www.serif.com/" style="fill-rule:evenodd;clip-rule:evenodd;stroke-linejoin:round;stroke-miterlimit:1.41421;"><g transform="matrix(0.291694,0,0,0.291694,-138.437,-126.697)"><path d="M519.969,495.822l0,-58l-10.2,0l0,26.1l-24.8,-26.1l-8.6,0l0,58l10.2,0l0,-41.8l23.2,24.2l0,17.6l10.2,0Z" style="fill:#00a2b5;fill-rule:nonzero;"/><path d="M557.969,495.822l0,-9.1l-8.5,0l0,-39.8l8.5,0l0,-9.1l-27,0l0,9.1l8.4,0l0,39.8l-8.4,0l0,9.1l27,0Z" style="fill:#00a2b5;fill-rule:nonzero;"/><path d="M612.669,490.922l-9,-8.5c4.8,-4.9 7.3,-6.7 7.3,-14l0,-17.1c0,-7.8 -6,-13.5 -14.2,-13.5l-17.6,0c-8.2,0 -14.2,5.8 -14.2,13.5l0,31.4c0,7.8 5.6,13.2 13.8,13.2l7,0c5.3,0 8,-3.3 11.3,-6.5l8.5,8.3l7.1,-6.8Zm-11.7,-21.9c0,3.7 -1.4,4.2 -4.2,6.8l-6.6,-6.3l-7.1,6.8l7.1,6.5l-2.7,2.7c-0.9,0.9 -1.4,1 -3.2,1l-6.5,0c-1.5,0 -2.8,-1.4 -2.8,-3.6l0,-32.1c0,-2 1.7,-3.7 3.5,-3.7l19,0c1.8,0 3.5,1.7 3.5,3.7l0,18.2Z" style="fill:#00a2b5;fill-rule:nonzero;"/><path d="M667.869,482.322l0,-31c0,-7.8 -6,-13.5 -14.2,-13.5l-17.4,0c-8.2,0 -14.2,5.7 -14.2,13.5l0,31c0,7.8 6,13.5 14.2,13.5l17.4,0c8.2,0 14.2,-5.7 14.2,-13.5Zm-10,0.5c0,2 -1.7,3.7 -3.5,3.7l-18.8,0c-1.8,0 -3.5,-1.7 -3.5,-3.7l0,-32c0,-2 1.7,-3.7 3.5,-3.7l18.8,0c1.8,0 3.5,1.7 3.5,3.7l0,32Z" style="fill:#00a2b5;fill-rule:nonzero;"/></g><path d="M37.646,14.02c0,0 3.403,3.184 4.993,4.671c0.515,0.481 1.193,0.749 1.897,0.749c6.223,0 36.824,0 36.824,0l0,1.2c0,0 -33.889,0 -39.896,0c-0.581,0 -1.14,-0.222 -1.562,-0.62c-1.331,-1.252 -4.212,-3.966 -4.212,-3.966l1.956,-2.034Z" style="fill:#00cd77;"/><g transform="matrix(0.24,0,0,0.24,-634.9,-104.49)"><path d="M2859.75,512.369l0,-8.873c0,-8.629 -6.077,-14.827 -14.463,-14.827l-31.114,0l0,70.492l6.441,0l0,-31.964l24.673,0c8.386,0 14.463,-6.199 14.463,-14.828Zm-6.442,0.851c0,3.889 -3.038,7.778 -7.049,7.778l-25.645,0l0,-26.252l25.645,0c4.011,0 7.049,3.889 7.049,7.778l0,10.696Z" style="fill-rule:nonzero;"/><path d="M2915.3,544.334l0,-40.838c0,-8.629 -6.076,-14.827 -14.463,-14.827l-21.026,0c-8.386,0 -14.463,6.198 -14.463,14.827l0,40.838c0,8.629 6.077,14.827 14.463,14.827l21.026,0c8.387,0 14.463,-6.198 14.463,-14.827Zm-6.441,0.729c0,3.889 -3.039,7.657 -7.049,7.657l-22.971,0c-4.011,0 -7.05,-3.768 -7.05,-7.657l0,-42.296c0,-3.889 3.039,-7.657 7.171,-7.657l22.85,0c4.01,0 7.049,3.768 7.049,7.657l0,42.296Z" style="fill-rule:nonzero;"/><path d="M2969.87,544.577l0,-41.324c0,-8.629 -6.077,-14.584 -14.464,-14.584l-33.301,0l0,70.492l33.301,0c8.387,0 14.464,-5.955 14.464,-14.584Zm-6.685,0.729c0,3.889 -3.16,7.414 -7.171,7.414l-27.468,0l0,-57.61l27.468,0c4.011,0 7.171,3.525 7.171,7.414l0,42.782Z" style="fill-rule:nonzero;"/><path d="M3026.63,544.577l0,-8.63c0,-8.629 -6.198,-14.584 -14.463,-14.827l-19.081,-0.487c-3.89,-0.121 -7.05,-3.767 -7.05,-7.778l0,-10.088c0,-3.889 3.16,-7.657 7.171,-7.657l18.96,0c4.011,0 7.05,3.768 7.05,7.657l0,2.796l6.441,0l0,-2.067c0,-8.629 -6.077,-14.827 -14.463,-14.827l-16.894,0c-8.386,0 -14.706,6.198 -14.706,14.827l0,8.63c0,8.629 6.077,14.584 14.463,14.827l19.082,0.608c4.01,0.122 7.049,3.768 7.049,7.779l0,9.966c0,3.889 -3.039,7.657 -7.049,7.657l-20.541,0c-3.889,0 -7.049,-3.768 -7.049,-7.657l0,-2.674l-6.441,0l0,1.945c0,8.629 6.077,14.827 14.463,14.827l18.595,0c8.386,0 14.463,-6.198 14.463,-14.827Z" style="fill-rule:nonzero;"/></g></svg>